<svg width="81" height="97" viewBox="0 0 81 97" fill="none" xmlns="http://www.w3.org/2000/svg">
<path fill-rule="evenodd" clip-rule="evenodd" d="M43.0382 86.5402L67.1629 62.4114L73.0557 77.406L23.1815 97L3.74917 47.5381L43.0382 86.5402ZM37.881 0H0.083374V38.2059L43.0261 80.8333L80.9167 42.9427L37.881 0ZM54.1488 38.2988C52.4715 36.6215 50.6527 35.8051 48.5793 35.8051C46.2433 35.8051 43.6202 36.7792 39.8049 39.0546C37.0485 40.7117 35.2863 41.415 33.9202 41.415C32.4612 41.415 29.5431 39.766 30.0362 36.4922C30.2463 35.0978 31.0466 33.6752 32.348 32.3697C34.9832 29.7386 38.5883 28.9424 41.5468 31.9413L44.5538 28.9343C42.63 27.0105 40.1242 25.7333 37.4365 25.7333C35.1489 25.7333 32.8896 26.6507 30.7152 28.4695L28.1851 25.9354L25.364 28.7605L28.0032 31.3957C25.7035 34.7341 24.6001 39.5639 28.3104 43.2701C32.3965 47.3562 37.1535 45.4566 42.1046 42.3324C44.5296 40.8006 46.4817 40.057 48.066 40.057C50.4466 40.057 52.8352 42.0697 52.423 45.1414C52.2128 46.7015 51.3721 48.2252 49.9131 49.6761C48.0903 51.4989 46.2594 52.4204 44.469 52.4204C42.7795 52.4204 41.4498 51.6444 40.2293 50.5532L37.2425 53.54C39.1138 55.391 41.6155 56.5833 44.2548 56.5833C46.4534 56.5833 48.648 55.771 50.7699 54.1705L52.9524 56.3449L55.7695 53.5278L53.6678 51.4221C56.6708 47.8008 58.344 42.4941 54.1488 38.2988ZM15.0335 8.08333C18.8246 8.08333 21.9003 11.159 21.9003 14.9501C21.9003 18.7412 18.8246 21.8169 15.0335 21.8169C11.2424 21.8169 8.16671 18.7412 8.16671 14.9501C8.16671 11.159 11.2424 8.08333 15.0335 8.08333Z" fill="white"/>
</svg>
