<svg width="40" height="68" viewBox="0 0 40 68" fill="none" xmlns="http://www.w3.org/2000/svg">
<g clip-path="url(#clip0)">
<path d="M25.2718 0C23.2796 0 21.4055 0.81991 20.0039 2.23328C18.6101 0.81991 16.7282 0 14.736 0C10.5469 0 7.13733 3.59198 7.13733 8.00388C7.13733 10.8697 9.16889 14.6334 13.169 19.1858C15.0037 21.2708 16.8148 23.0356 17.9172 24.0507C17.303 25.6202 17.5156 27.5021 18.5629 28.9154C18.5629 28.9154 19.7676 30.157 18.807 31.5157C17.5629 33.2727 17.4999 35.7402 18.807 37.5284C18.807 37.5284 19.8464 38.8325 21.1851 37.9344C22.3819 37.0755 21.4291 35.6621 21.4291 35.6621C20.9409 35.014 20.9409 34.038 21.4291 33.3898C22.7363 31.6797 22.7363 29.1653 21.4291 27.3772C21.4291 27.3772 20.2795 26.0653 21.0354 25.0033C21.0433 24.9955 21.0511 24.9877 21.0669 24.9799C21.1851 24.8706 23.9883 22.3093 26.8388 19.0141C30.894 14.3289 32.8626 10.7291 32.8626 8.00388C32.8704 3.59198 29.4609 0 25.2718 0ZM24.4765 16.9604C22.7678 18.936 21.0433 20.6695 19.9881 21.6924C18.933 20.7085 17.24 19.0531 15.5471 17.1322C12.1532 13.2747 10.287 10.0341 10.287 8.00388C10.287 5.30989 12.2871 3.12346 14.736 3.12346C16.3266 3.12346 17.807 4.06831 18.6023 5.591C18.87 6.10637 19.4134 6.43433 19.996 6.43433C20.5866 6.43433 21.1221 6.10637 21.3898 5.591C22.1929 4.06831 23.6733 3.12346 25.2718 3.12346C27.7286 3.12346 29.7286 5.31769 29.7286 8.00388C29.7208 9.08147 29.0436 11.674 24.4765 16.9604Z" fill="white"/>
</g>
<rect y="28.3333" width="40" height="39.6667" fill="white"/>
<defs>
<clipPath id="clip0">
<rect width="27.1429" height="38.25" fill="white" transform="translate(6.42859)"/>
</clipPath>
</defs>
</svg>
