<svg width="45" height="45" viewBox="0 0 45 45" fill="none" xmlns="http://www.w3.org/2000/svg">
<path d="M35.625 0H9.375C4.19813 0 0 4.19813 0 9.375V35.625C0 40.8019 4.19813 45 9.375 45H35.625C40.8037 45 45 40.8019 45 35.625V9.375C45 4.19813 40.8037 0 35.625 0ZM36.0938 31.8675H32.0925C29.8331 31.8675 29.4506 30.5794 27.5906 28.7194C25.9088 27.0375 24.975 28.3275 25.0144 30.7219C25.0256 31.3575 24.7125 31.8675 23.9531 31.8675C21.5831 31.8675 18.1781 32.2012 14.7319 28.4812C11.2013 24.6694 7.5 17.0231 7.5 16.2694C7.5 15.825 7.8675 15.6244 8.4825 15.6244H12.5512C13.6275 15.6244 13.7194 16.1569 14.0194 16.8413C15.27 19.6931 18.2662 25.4175 19.0631 22.2225C19.5206 20.3888 19.7081 16.1381 17.745 15.7725C16.6313 15.5662 18.5925 14.3737 21.435 14.3737C22.1419 14.3737 22.9088 14.4506 23.6944 14.6306C25.1362 14.9663 25.14 15.6113 25.1213 16.5544C25.0481 20.1225 24.6169 22.5244 25.5581 23.13C26.4562 23.7113 28.8188 19.9106 30.0638 16.9781C30.4069 16.1663 30.4744 15.6244 31.44 15.6244H36.4163C39.0225 15.6244 36.075 19.3688 33.8231 22.2938C32.0081 24.6469 32.1056 24.6938 34.215 26.6512C35.7206 28.0462 37.4963 29.9512 37.4963 31.0312C37.5 31.5412 37.1025 31.8675 36.0938 31.8675Z" fill="white"/>
</svg>
